<svg version="1.1" xmlns="http://www.w3.org/2000/svg" xmlns:xlink="http://www.w3.org/1999/xlink" width="980" height="440"><style xmlns="http://www.w3.org/1999/xhtml"></style><defs/><g transform="translate(0,0)"><g><rect fill="#FFFFFF" stroke="none" x="0" y="0" width="980" height="440"/></g><g transform="translate(0.5,0.5) matrix(1,0,0,1,40,0)"><g><g transform="translate(0,0) scale(9.2,4.2)"><g><path fill="#ffffff" stroke="none" stroke-dasharray="1.7976931348623157e+308" d="M 0 0 L 100 0 Q 100 0 100 0 L 100 100 Q 100 100 100 100 L 0 100 Q 0 100 0 100 L 0 0 Q 0 0 0 0 Z"/><g transform="scale(0.10869565217391305,0.23809523809523808)"><path fill="none" stroke="none" stroke-dasharray="1.7976931348623157e+308" d="M 0 0 L 919.9999999999999 0 Q 919.9999999999999 0 919.9999999999999 0 L 919.9999999999999 420 Q 919.9999999999999 420 919.9999999999999 420 L 0 420 Q 0 420 0 420 L 0 0 Q 0 0 0 0 Z"/><path fill="none" stroke="#000000" stroke-dasharray="1.7976931348623157e+308" d="M 0 0 L 919.9999999999999 0 Q 919.9999999999999 0 919.9999999999999 0 L 919.9999999999999 420 Q 919.9999999999999 420 919.9999999999999 420 L 0 420 Q 0 420 0 420 L 0 0 Q 0 0 0 0 Z" stroke-miterlimit="10"/></g></g></g></g></g><g transform="translate(0.5,0.5) matrix(1,0,0,1,390,230)"><g><g transform="translate(0,0) scale(1,1)"><g><g><path fill="#3966A0" stroke="rgb(0,0,0)" stroke-dasharray="1.7976931348623157e+308" d="M 103 29.5 L 103 3.5 C 103 1.57 101.415 0 99.466 0 L 82.35 0 C 80.662 0 79.246 1.18 78.899 2.75 L 77.067 2.75 C 76.721 1.18 75.305 0 73.616 0 L 29.385 0 C 27.697 0 26.281 1.18 25.933 2.75 L 24.102 2.75 C 23.754 1.18 22.338 0 20.65 0 L 3.534 0 C 1.585 0 0 1.57 0 3.5 L 0 29.5 C 0 30.872 0.791 32.058 1.956 32.63 L 1.956 35.37 C 0.791 35.942 0 37.128 0 38.5 L 0 64.5 C 0 65.872 0.791 67.059 1.956 67.63 L 1.956 70.37 C 0.791 70.941 0 72.128 0 73.5 L 0 99.5 C 0 101.43 1.585 103 3.534 103 L 20.65 103 C 22.338 103 23.754 101.82 24.102 100.25 L 25.933 100.25 C 26.281 101.82 27.697 103 29.385 103 L 73.616 103 C 75.304 103 76.72 101.82 77.068 100.25 L 78.898 100.25 C 79.247 101.82 80.662 103 82.351 103 L 99.466 103 C 101.415 103 103 101.43 103 99.5 L 103 73.5 C 103 72.128 102.209 70.941 101.044 70.37 L 101.044 67.63 C 102.209 67.059 103 65.872 103 64.5 L 103 38.5 C 103 37.128 102.209 35.942 101.044 35.37 L 101.044 32.63 C 102.209 32.058 103 30.872 103 29.5 Z" stroke-opacity="0" stroke-miterlimit="10"/></g><g><path fill="#FFFFFF" stroke="rgb(0,0,0)" stroke-dasharray="1.7976931348623157e+308" d="M 99.486 29.993 C 99.77 29.982 100 29.761 100 29.5 L 100 3.5 C 100 3.229 99.756 3 99.467 3 L 82.352 3 C 82.061 3 81.817 3.229 81.817 3.5 L 81.817 5.75 L 74.15 5.75 L 74.15 3.5 C 74.15 3.229 73.904 3 73.616 3 L 29.386 3 C 29.097 3 28.852 3.229 28.852 3.5 L 28.852 5.75 L 21.185 5.75 L 21.185 3.5 C 21.185 3.229 20.94 3 20.651 3 L 3.534 3 C 3.245 3 3 3.229 3 3.5 L 3 29.5 C 3 29.761 3.23 29.982 3.514 29.993 L 4.956 30.049 L 4.956 37.952 L 3.513 38.007 C 3.23 38.018 3 38.239 3 38.5 L 3 64.5 C 3 64.762 3.23 64.982 3.513 64.993 L 4.956 65.048 L 4.956 72.952 L 3.513 73.007 C 3.23 73.018 3 73.238 3 73.5 L 3 99.5 C 3 99.771 3.245 100 3.534 100 L 20.65 100 C 20.939 100 21.184 99.771 21.184 99.5 L 21.184 97.25 L 28.851 97.25 L 28.851 99.5 C 28.851 99.771 29.096 100 29.385 100 L 73.615 100 C 73.904 100 74.148 99.771 74.148 99.5 L 74.148 97.25 L 81.816 97.25 L 81.816 99.5 C 81.816 99.771 82.06 100 82.349 100 L 99.465 100 C 99.754 100 99.998 99.771 99.998 99.5 L 99.998 73.5 C 99.998 73.238 99.769 73.018 99.485 73.007 L 98.042 72.952 L 98.042 65.048 L 99.485 64.993 C 99.766 64.982 99.998 64.762 99.998 64.5 L 99.998 38.5 C 99.998 38.239 99.769 38.018 99.485 38.007 L 98.042 37.952 L 98.042 30.049 L 99.486 29.993 Z M 74.122 87.453 C 72.031 87.453 70.055 86.941 68.275 86.05 C 64.08 89.126 58.894 90.969 53.259 90.969 C 47.431 90.969 42.081 89.003 37.814 85.735 C 35.72 86.826 33.379 87.454 30.896 87.454 C 22.108 87.454 14.985 79.801 14.985 70.36 C 14.985 68.192 15.376 66.126 16.061 64.216 L 16.047 64.216 L 16.098 64.11 C 16.477 63.076 16.945 62.092 17.496 61.168 L 30.897 32.967 L 36.392 44.53 L 53.26 12.031 L 71.038 46.28 L 74.122 39.776 L 85.822 64.452 C 86.302 65.261 86.712 66.121 87.042 67.025 L 87.086 67.12 L 87.072 67.12 C 87.671 68.79 88.013 70.598 88.013 72.495 C 88.016 80.756 81.795 87.453 74.122 87.453 Z" opacity="0.93" stroke-opacity="0" stroke-miterlimit="10"/></g><g><path fill="#FFFFFF" stroke="rgb(0,0,0)" stroke-dasharray="1.7976931348623157e+308" d="M 75.592 68.539 L 75.6 68.539 L 75.574 68.496 C 75.371 68.079 75.121 67.682 74.826 67.308 L 67.657 55.935 L 64.03 61.687 C 63.936 61.527 63.85 61.359 63.75 61.205 L 52.676 39.874 L 42.144 60.163 L 36.809 51.475 L 28.406 65.157 C 28.061 65.605 27.767 66.082 27.53 66.584 L 27.498 66.636 L 27.507 66.636 C 27.077 67.563 26.832 68.565 26.832 69.617 C 26.832 74.197 31.299 77.911 36.809 77.911 C 38.946 77.911 40.921 77.348 42.544 76.396 C 44.955 79.261 48.599 81.087 52.676 81.087 C 56.663 81.087 60.229 79.334 62.641 76.578 C 64.048 77.412 65.778 77.911 67.657 77.911 C 72.358 77.911 76.17 74.824 76.17 71.016 C 76.168 70.143 75.959 69.309 75.592 68.539 Z" opacity="0.93" stroke-opacity="0" stroke-miterlimit="10"/></g></g></g></g></g><g transform="matrix(1,0,0,1,417,335)"><g><g><rect fill="rgb(0,0,0)" stroke="none" x="0" y="0" width="47" height="14" fill-opacity="0"/></g></g><g><g><rect fill="rgb(0,0,0)" stroke="none" x="0" y="0" width="47" height="14" fill-opacity="0"/></g></g><g><g><rect fill="rgb(0,0,0)" stroke="none" x="3" y="0" width="41" height="14" fill-opacity="0"/></g></g><g><g><rect fill="rgb(0,0,0)" stroke="none" x="3" y="0" width="41" height="14" fill-opacity="0"/></g><text fill="rgb(0, 0, 0)" stroke="none" font-family="Arial" font-size="12px" font-style="normal" font-weight="normal" text-decoration="" line-height="14px" x="3" y="11">Firewall</text></g></g><g transform="translate(0.5,0.5) matrix(1,0,0,1,70,180)"><g><g transform="translate(0,0) scale(1,1.003405497445877)"><g><g><path fill="#3966A0" stroke="rgb(0,0,0)" stroke-dasharray="1.7976931348623157e+308" d="M 102.635 0 C 93.815 0 86.371 6.797 85.395 15.43 L 4.554 15.43 C 2.043 15.431 0 17.473 0 19.984 L 0 53.338 C 0 55.849 2.043 57.892 4.554 57.892 L 8.016 57.892 L 8.016 65.776 L 96.471 65.776 L 96.471 57.892 L 99.672 57.892 C 102.184 57.892 104.227 55.849 104.227 53.338 L 104.227 34.655 C 107.211 34.382 109.971 33.334 112.331 31.735 L 112.331 31.735 C 112.785 31.428 113.223 31.1 113.643 30.753 C 113.655 30.744 113.665 30.734 113.676 30.725 C 114.093 30.38 114.492 30.017 114.875 29.635 C 114.875 29.635 114.887 29.623 114.893 29.617 C 118.039 26.471 120 22.143 120 17.365 C 120 7.79 112.21 0 102.635 0 Z" stroke-opacity="0" stroke-miterlimit="10"/></g><g><path fill="#FFFFFF" stroke="rgb(0,0,0)" stroke-dasharray="1.7976931348623157e+308" d="M 102.688 3.191 C 94.836 3.191 88.45 9.579 88.45 17.43 C 88.45 25.281 94.838 31.669 102.688 31.669 C 110.54 31.669 116.926 25.281 116.926 17.43 C 116.926 9.579 110.539 3.191 102.688 3.191 Z M 97.377 20.901 C 97.118 20.901 96.859 20.802 96.662 20.605 C 96.267 20.21 96.267 19.569 96.662 19.174 L 97.412 18.424 L 91.228 18.424 C 90.669 18.424 90.216 17.971 90.216 17.412 C 90.216 16.853 90.67 16.4 91.229 16.4 L 97.414 16.4 L 96.699 15.686 C 96.303 15.291 96.303 14.65 96.699 14.255 C 97.095 13.86 97.735 13.86 98.13 14.255 L 100.571 16.696 C 100.665 16.79 100.739 16.902 100.791 17.026 C 100.894 17.273 100.894 17.552 100.791 17.799 C 100.739 17.924 100.665 18.036 100.571 18.129 L 98.093 20.605 C 97.895 20.802 97.637 20.901 97.377 20.901 Z M 105.863 25.522 L 103.422 27.963 C 103.225 28.161 102.965 28.259 102.707 28.259 C 102.698 28.259 102.689 28.254 102.68 28.254 C 102.671 28.254 102.663 28.259 102.655 28.259 C 102.305 28.259 102.012 28.07 101.83 27.801 L 99.515 25.484 C 99.119 25.089 99.119 24.448 99.515 24.053 C 99.91 23.658 100.55 23.658 100.945 24.053 L 101.644 24.752 L 101.644 9.174 L 100.945 9.873 C 100.748 10.071 100.488 10.169 100.23 10.169 C 99.97 10.169 99.711 10.07 99.515 9.873 C 99.119 9.478 99.119 8.837 99.515 8.442 L 101.954 6 C 102.35 5.605 102.988 5.605 103.385 6 L 105.864 8.478 C 106.26 8.873 106.26 9.514 105.864 9.909 C 105.667 10.107 105.408 10.205 105.149 10.205 C 104.889 10.205 104.63 10.106 104.434 9.909 L 103.667 9.143 L 103.667 24.857 L 104.434 24.091 C 104.829 23.696 105.468 23.696 105.864 24.091 C 106.258 24.486 106.258 25.126 105.863 25.522 Z M 114.148 18.46 L 107.964 18.46 L 108.677 19.174 C 109.073 19.569 109.073 20.21 108.677 20.605 C 108.48 20.803 108.22 20.901 107.961 20.901 C 107.702 20.901 107.442 20.802 107.246 20.605 L 104.808 18.165 C 104.713 18.072 104.64 17.959 104.587 17.835 C 104.485 17.588 104.485 17.309 104.587 17.062 C 104.64 16.937 104.713 16.825 104.808 16.732 L 107.284 14.255 C 107.68 13.86 108.32 13.86 108.715 14.255 C 109.11 14.65 109.11 15.291 108.715 15.686 L 107.964 16.437 L 114.149 16.437 C 114.708 16.437 115.161 16.89 115.161 17.449 C 115.16 18.008 114.707 18.46 114.148 18.46 Z" stroke-opacity="0" stroke-miterlimit="10"/></g><g><path fill="#FFFFFF" stroke="rgb(0,0,0)" stroke-dasharray="1.7976931348623157e+308" d="M 80.533 36.476 A 3.247 3.247 0 1 0 80.53299837650013 36.47924699945883 Z" opacity="0.5" stroke-opacity="0" stroke-miterlimit="10"/></g><g><path fill="#FFFFFF" stroke="rgb(0,0,0)" stroke-dasharray="1.7976931348623157e+308" d="M 9.278 35.006 L 20.39 35.006 L 20.39 24 L 9.278 24 L 9.278 35.006 Z M 10.929 25.567 L 18.819 25.567 L 18.819 31.173 L 16.536 31.173 L 16.536 33.456 L 13.213 33.456 L 13.213 31.173 L 10.93 31.173 L 10.929 25.567 L 10.929 25.567 Z" opacity="0.65" stroke-opacity="0" stroke-miterlimit="10"/></g><g><path fill="#FFFFFF" stroke="rgb(0,0,0)" stroke-dasharray="1.7976931348623157e+308" d="M 24.253 35.015 L 35.365 35.015 L 35.365 24.009 L 24.253 24.009 L 24.253 35.015 Z M 25.904 25.576 L 33.794 25.576 L 33.794 31.182 L 31.51 31.182 L 31.51 33.465 L 28.187 33.465 L 28.187 31.182 L 25.904 31.182 L 25.904 25.576 Z" opacity="0.65" stroke-opacity="0" stroke-miterlimit="10"/></g><g><path fill="#FFFFFF" stroke="rgb(0,0,0)" stroke-dasharray="1.7976931348623157e+308" d="M 50.3 24.009 L 39.188 24.009 L 39.188 35.014 L 50.3 35.014 L 50.3 24.009 Z M 48.729 31.173 L 46.446 31.173 L 46.446 33.456 L 43.123 33.456 L 43.123 31.173 L 40.84 31.173 L 40.84 25.567 L 48.73 25.567 L 48.729 31.173 L 48.729 31.173 Z" opacity="0.65" stroke-opacity="0" stroke-miterlimit="10"/></g><g><path fill="#FFFFFF" stroke="rgb(0,0,0)" stroke-dasharray="1.7976931348623157e+308" d="M 54.123 35.023 L 65.234 35.023 L 65.234 24.018 L 54.123 24.018 L 54.123 35.023 Z M 55.774 25.567 L 63.664 25.567 L 63.664 31.173 L 61.38 31.173 L 61.38 33.456 L 58.057 33.456 L 58.057 31.173 L 55.774 31.173 L 55.774 25.567 Z" opacity="0.65" stroke-opacity="0" stroke-miterlimit="10"/></g><g><path fill="#FFFFFF" stroke="rgb(0,0,0)" stroke-dasharray="1.7976931348623157e+308" d="M 9.278 49.95 L 20.39 49.95 L 20.39 38.944 L 9.278 38.944 L 9.278 49.95 Z M 10.929 40.502 L 18.819 40.502 L 18.819 46.108 L 16.536 46.108 L 16.536 48.391 L 13.213 48.391 L 13.213 46.108 L 10.93 46.108 L 10.929 40.502 L 10.929 40.502 Z" opacity="0.65" stroke-opacity="0" stroke-miterlimit="10"/></g><g><path fill="#FFFFFF" stroke="rgb(0,0,0)" stroke-dasharray="1.7976931348623157e+308" d="M 24.253 49.958 L 35.365 49.958 L 35.365 38.953 L 24.253 38.953 L 24.253 49.958 Z M 25.904 40.52 L 33.794 40.52 L 33.794 46.126 L 31.51 46.126 L 31.51 48.408 L 28.187 48.408 L 28.187 46.126 L 25.904 46.126 L 25.904 40.52 Z" opacity="0.65" stroke-opacity="0" stroke-miterlimit="10"/></g><g><path fill="#FFFFFF" stroke="rgb(0,0,0)" stroke-dasharray="1.7976931348623157e+308" d="M 39.228 49.966 L 50.34 49.966 L 50.34 38.962 L 39.228 38.962 L 39.228 49.966 Z M 40.839 40.511 L 48.729 40.511 L 48.729 46.117 L 46.446 46.117 L 46.446 48.4 L 43.123 48.4 L 43.123 46.117 L 40.84 46.117 L 40.839 40.511 L 40.839 40.511 Z" opacity="0.65" stroke-opacity="0" stroke-miterlimit="10"/></g><g><path fill="#FFFFFF" stroke="rgb(0,0,0)" stroke-dasharray="1.7976931348623157e+308" d="M 54.123 49.966 L 65.234 49.966 L 65.234 38.962 L 54.123 38.962 L 54.123 49.966 Z M 55.774 40.511 L 63.664 40.511 L 63.664 46.117 L 61.38 46.117 L 61.38 48.4 L 58.057 48.4 L 58.057 46.117 L 55.774 46.117 L 55.774 40.511 Z" opacity="0.65" stroke-opacity="0" stroke-miterlimit="10"/></g><g><path fill="#FFFFFF" stroke="rgb(0,0,0)" stroke-dasharray="1.7976931348623157e+308" d="M 11.504 57.898 L 92.919 57.898 Q 92.919 57.898 92.919 57.898 L 92.919 62.69 Q 92.919 62.69 92.919 62.69 L 11.504 62.69 Q 11.504 62.69 11.504 62.69 L 11.504 57.898 Q 11.504 57.898 11.504 57.898 Z" opacity="0.7" stroke-opacity="0" stroke-miterlimit="10"/></g><g><path fill="#FFFFFF" stroke="rgb(0,0,0)" stroke-dasharray="1.7976931348623157e+308" d="M 85.525 18.936 L 5.082 18.936 C 4.255 18.936 3.582 19.609 3.582 20.436 L 3.582 53.397 C 3.582 54.224 4.255 54.897 5.082 54.897 L 11.504 54.897 L 92.919 54.897 L 99.082 54.897 C 99.909 54.897 100.582 54.224 100.582 53.397 L 100.582 34.526 C 92.561 33.543 86.232 27.039 85.525 18.936 Z M 20.389 49.95 L 9.278 49.95 L 9.278 38.944 L 20.39 38.944 L 20.389 49.95 L 20.389 49.95 Z M 20.389 35.006 L 9.278 35.006 L 9.278 24 L 20.39 24 L 20.389 35.006 L 20.389 35.006 Z M 35.365 49.958 L 24.253 49.958 L 24.253 38.953 L 35.365 38.953 L 35.365 49.958 Z M 35.365 35.015 L 24.253 35.015 L 24.253 24.009 L 35.365 24.009 L 35.365 35.015 Z M 39.188 24.009 L 50.3 24.009 L 50.3 35.014 L 39.188 35.014 L 39.188 24.009 Z M 50.34 49.966 L 39.228 49.966 L 39.228 38.962 L 50.34 38.962 L 50.34 49.966 Z M 65.234 49.966 L 54.123 49.966 L 54.123 38.962 L 65.234 38.962 L 65.234 49.966 Z M 65.234 35.023 L 54.123 35.023 L 54.123 24.018 L 65.234 24.018 L 65.234 35.023 Z M 77.286 39.723 C 75.493 39.723 74.039 38.269 74.039 36.476 C 74.039 34.683 75.493 33.229 77.286 33.229 C 79.079 33.229 80.533 34.683 80.533 36.476 C 80.533 38.269 79.08 39.723 77.286 39.723 Z M 89.541 39.723 C 87.748 39.723 86.294 38.269 86.294 36.476 C 86.294 34.683 87.748 33.229 89.541 33.229 C 91.334 33.229 92.788 34.683 92.788 36.476 C 92.787 38.269 91.334 39.723 89.541 39.723 Z" opacity="0.93" stroke-opacity="0" stroke-miterlimit="10"/></g></g></g></g></g><g transform="matrix(1,0,0,1,108,248)"><g><g><rect fill="rgb(0,0,0)" stroke="none" x="0" y="0" width="42" height="14" fill-opacity="0"/></g></g><g><g><rect fill="rgb(0,0,0)" stroke="none" x="0" y="0" width="42" height="14" fill-opacity="0"/></g></g><g><g><rect fill="rgb(0,0,0)" stroke="none" x="2.984375" y="0" width="36" height="14" fill-opacity="0"/></g></g><g><g><rect fill="rgb(0,0,0)" stroke="none" x="2.984375" y="0" width="36" height="14" fill-opacity="0"/></g><text fill="rgb(0, 0, 0)" stroke="none" font-family="Arial" font-size="12px" font-style="normal" font-weight="normal" text-decoration="" line-height="14px" x="2.984375" y="11">Router</text></g></g><g transform="translate(0.5,0.5) matrix(1,0,0,1,670,250)"><g><g transform="translate(0,0) scale(1,1.0211152036760147)"><g><g><path fill="#3966A0" stroke="rgb(0,0,0)" stroke-dasharray="1.7976931348623157e+308" d="M 115.092 0 L 4.908 0 C 2.202 0 0 2.202 0 4.908 L 0 22.513 C 0 25.219 2.202 27.421 4.908 27.421 L 115.092 27.421 C 117.798 27.421 120 25.219 120 22.513 L 120 4.908 C 120 2.202 117.798 0 115.092 0 Z" stroke-opacity="0" stroke-miterlimit="10"/></g><g><path fill="#FFFFFF" stroke="rgb(0,0,0)" stroke-dasharray="1.7976931348623157e+308" d="M 115.092 3.008 L 109.196 3.008 L 109.196 24.414 L 10.806 24.414 L 10.806 3.008 L 4.908 3.008 C 3.863 3.008 3.008 3.863 3.008 4.908 L 3.008 22.513 C 3.008 23.558 3.863 24.413 4.908 24.413 L 115.092 24.413 C 116.137 24.413 116.992 23.558 116.992 22.513 L 116.992 4.908 C 116.992 3.863 116.137 3.008 115.092 3.008 Z M 6.847 21.902 C 5.863 21.902 5.066 21.105 5.066 20.121 C 5.066 19.137 5.863 18.34 6.847 18.34 C 7.831 18.34 8.628 19.137 8.628 20.121 C 8.628 21.104 7.831 21.902 6.847 21.902 Z M 6.847 8.841 C 5.863 8.841 5.066 8.044 5.066 7.06 C 5.066 6.076 5.863 5.279 6.847 5.279 C 7.831 5.279 8.628 6.076 8.628 7.06 C 8.628 8.044 7.831 8.841 6.847 8.841 Z M 113.113 21.902 C 112.13 21.902 111.332 21.105 111.332 20.121 C 111.332 19.137 112.129 18.34 113.113 18.34 C 114.097 18.34 114.894 19.137 114.894 20.121 C 114.895 21.104 114.098 21.902 113.113 21.902 Z M 113.113 8.841 C 112.13 8.841 111.332 8.044 111.332 7.06 C 111.332 6.076 112.129 5.279 113.113 5.279 C 114.097 5.279 114.894 6.076 114.894 7.06 C 114.894 8.044 114.098 8.841 113.113 8.841 Z" opacity="0.93" stroke-opacity="0" stroke-miterlimit="10"/></g><g><path fill="#FFFFFF" stroke="rgb(0,0,0)" stroke-dasharray="1.7976931348623157e+308" d="M 109.195 24.414 L 109.195 3.008 L 10.805 3.008 L 10.805 24.414 L 109.195 24.414 Z M 95.145 7.06 L 106.425 7.06 L 106.425 20.121 L 95.145 20.121 L 95.145 7.06 Z M 68.271 8.485 L 92.017 8.485 L 92.017 18.695 L 68.271 18.695 L 68.271 8.485 Z M 41.161 8.485 L 64.908 8.485 L 64.908 18.695 L 41.161 18.695 L 41.161 8.485 Z M 14.09 8.485 L 37.837 8.485 L 37.837 18.695 L 14.09 18.695 L 14.09 8.485 Z" opacity="0.7" stroke-opacity="0" stroke-miterlimit="10"/></g><g><path fill="#FFFFFF" stroke="rgb(0,0,0)" stroke-dasharray="1.7976931348623157e+308" d="M 37.836 8.485 L 14.09 8.485 L 14.09 18.695 L 37.837 18.695 L 37.836 8.485 L 37.836 8.485 Z M 35.976 16.852 L 15.871 16.852 L 15.871 14.873 L 35.976 14.873 L 35.976 16.852 Z M 35.976 12.55 L 15.871 12.55 L 15.871 10.571 L 35.976 10.571 L 35.976 12.55 Z" opacity="0.25" stroke-opacity="0" stroke-miterlimit="10"/></g><g><path fill="#FFFFFF" stroke="rgb(0,0,0)" stroke-dasharray="1.7976931348623157e+308" d="M 64.908 8.485 L 41.161 8.485 L 41.161 18.695 L 64.908 18.695 L 64.908 8.485 Z M 63.087 16.852 L 42.981 16.852 L 42.981 14.873 L 63.087 14.873 L 63.087 16.852 Z M 63.087 12.55 L 42.981 12.55 L 42.981 10.571 L 63.087 10.571 L 63.087 12.55 Z" opacity="0.25" stroke-opacity="0" stroke-miterlimit="10"/></g><g><path fill="#FFFFFF" stroke="rgb(0,0,0)" stroke-dasharray="1.7976931348623157e+308" d="M 92.018 8.485 L 68.271 8.485 L 68.271 18.695 L 92.017 18.695 L 92.017 8.485 Z M 90.198 16.852 L 70.093 16.852 L 70.093 14.873 L 90.198 14.873 L 90.198 16.852 Z M 90.198 12.55 L 70.093 12.55 L 70.093 10.571 L 90.198 10.571 L 90.198 12.55 Z" opacity="0.25" stroke-opacity="0" stroke-miterlimit="10"/></g><g><path fill="#FFFFFF" stroke="rgb(0,0,0)" stroke-dasharray="1.7976931348623157e+308" d="M 8.628 7.06 A 1.781 1.781 0 1 0 8.627999109500074 7.061780999703167 Z" opacity="0.3" stroke-opacity="0" stroke-miterlimit="10"/></g><g><path fill="#FFFFFF" stroke="rgb(0,0,0)" stroke-dasharray="1.7976931348623157e+308" d="M 8.628 20.121 A 1.781 1.781 0 1 0 8.627999109500074 20.122780999703167 Z" opacity="0.3" stroke-opacity="0" stroke-miterlimit="10"/></g><g><path fill="#FFFFFF" stroke="rgb(0,0,0)" stroke-dasharray="1.7976931348623157e+308" d="M 114.894 7.06 A 1.781 1.781 0 1 0 114.89399910950007 7.061780999703167 Z" opacity="0.3" stroke-opacity="0" stroke-miterlimit="10"/></g><g><path fill="#FFFFFF" stroke="rgb(0,0,0)" stroke-dasharray="1.7976931348623157e+308" d="M 114.894 20.121 A 1.781 1.781 0 1 0 114.89399910950007 20.122780999703167 Z" opacity="0.3" stroke-opacity="0" stroke-miterlimit="10"/></g></g></g></g></g><g transform="matrix(1,0,0,1,709,280)"><g><g><rect fill="rgb(0,0,0)" stroke="none" x="0" y="0" width="41" height="14" fill-opacity="0"/></g></g><g><g><rect fill="rgb(0,0,0)" stroke="none" x="0" y="0" width="41" height="14" fill-opacity="0"/></g></g><g><g><rect fill="rgb(0,0,0)" stroke="none" x="3" y="0" width="35" height="14" fill-opacity="0"/></g></g><g><g><rect fill="rgb(0,0,0)" stroke="none" x="3" y="0" width="35" height="14" fill-opacity="0"/></g><text fill="rgb(0, 0, 0)" stroke="none" font-family="Arial" font-size="12px" font-style="normal" font-weight="normal" text-decoration="" line-height="14px" x="3" y="11">Switch</text></g></g><g transform="matrix(1,0,0,1,161.8798770649977,204)"><g transform="translate(0,0)"><g transform="translate(-275,-219) translate(113.12012293500231,15) matrix(1,0,0,1,0,0)"><g><path fill="none" stroke="#000000" stroke-dasharray="undefined" d="M 281 219 L 176.8798770649977 219" stroke-miterlimit="10" stroke-width="2"/></g></g></g></g><g transform="translate(0.5,0.5) matrix(1,0,0,1,390,100)"><g><g transform="translate(0,0) scale(1,1)"><g><g><path fill="#3966A0" stroke="rgb(0,0,0)" stroke-dasharray="1.7976931348623157e+308" d="M 103 29.5 L 103 3.5 C 103 1.57 101.415 0 99.466 0 L 82.35 0 C 80.662 0 79.246 1.18 78.899 2.75 L 77.067 2.75 C 76.721 1.18 75.305 0 73.616 0 L 29.385 0 C 27.697 0 26.281 1.18 25.933 2.75 L 24.102 2.75 C 23.754 1.18 22.338 0 20.65 0 L 3.534 0 C 1.585 0 0 1.57 0 3.5 L 0 29.5 C 0 30.872 0.791 32.058 1.956 32.63 L 1.956 35.37 C 0.791 35.942 0 37.128 0 38.5 L 0 64.5 C 0 65.872 0.791 67.059 1.956 67.63 L 1.956 70.37 C 0.791 70.941 0 72.128 0 73.5 L 0 99.5 C 0 101.43 1.585 103 3.534 103 L 20.65 103 C 22.338 103 23.754 101.82 24.102 100.25 L 25.933 100.25 C 26.281 101.82 27.697 103 29.385 103 L 73.616 103 C 75.304 103 76.72 101.82 77.068 100.25 L 78.898 100.25 C 79.247 101.82 80.662 103 82.351 103 L 99.466 103 C 101.415 103 103 101.43 103 99.5 L 103 73.5 C 103 72.128 102.209 70.941 101.044 70.37 L 101.044 67.63 C 102.209 67.059 103 65.872 103 64.5 L 103 38.5 C 103 37.128 102.209 35.942 101.044 35.37 L 101.044 32.63 C 102.209 32.058 103 30.872 103 29.5 Z" stroke-opacity="0" stroke-miterlimit="10"/></g><g><path fill="#FFFFFF" stroke="rgb(0,0,0)" stroke-dasharray="1.7976931348623157e+308" d="M 99.486 29.993 C 99.77 29.982 100 29.761 100 29.5 L 100 3.5 C 100 3.229 99.756 3 99.467 3 L 82.352 3 C 82.061 3 81.817 3.229 81.817 3.5 L 81.817 5.75 L 74.15 5.75 L 74.15 3.5 C 74.15 3.229 73.904 3 73.616 3 L 29.386 3 C 29.097 3 28.852 3.229 28.852 3.5 L 28.852 5.75 L 21.185 5.75 L 21.185 3.5 C 21.185 3.229 20.94 3 20.651 3 L 3.534 3 C 3.245 3 3 3.229 3 3.5 L 3 29.5 C 3 29.761 3.23 29.982 3.514 29.993 L 4.956 30.049 L 4.956 37.952 L 3.513 38.007 C 3.23 38.018 3 38.239 3 38.5 L 3 64.5 C 3 64.762 3.23 64.982 3.513 64.993 L 4.956 65.048 L 4.956 72.952 L 3.513 73.007 C 3.23 73.018 3 73.238 3 73.5 L 3 99.5 C 3 99.771 3.245 100 3.534 100 L 20.65 100 C 20.939 100 21.184 99.771 21.184 99.5 L 21.184 97.25 L 28.851 97.25 L 28.851 99.5 C 28.851 99.771 29.096 100 29.385 100 L 73.615 100 C 73.904 100 74.148 99.771 74.148 99.5 L 74.148 97.25 L 81.816 97.25 L 81.816 99.5 C 81.816 99.771 82.06 100 82.349 100 L 99.465 100 C 99.754 100 99.998 99.771 99.998 99.5 L 99.998 73.5 C 99.998 73.238 99.769 73.018 99.485 73.007 L 98.042 72.952 L 98.042 65.048 L 99.485 64.993 C 99.766 64.982 99.998 64.762 99.998 64.5 L 99.998 38.5 C 99.998 38.239 99.769 38.018 99.485 38.007 L 98.042 37.952 L 98.042 30.049 L 99.486 29.993 Z M 74.122 87.453 C 72.031 87.453 70.055 86.941 68.275 86.05 C 64.08 89.126 58.894 90.969 53.259 90.969 C 47.431 90.969 42.081 89.003 37.814 85.735 C 35.72 86.826 33.379 87.454 30.896 87.454 C 22.108 87.454 14.985 79.801 14.985 70.36 C 14.985 68.192 15.376 66.126 16.061 64.216 L 16.047 64.216 L 16.098 64.11 C 16.477 63.076 16.945 62.092 17.496 61.168 L 30.897 32.967 L 36.392 44.53 L 53.26 12.031 L 71.038 46.28 L 74.122 39.776 L 85.822 64.452 C 86.302 65.261 86.712 66.121 87.042 67.025 L 87.086 67.12 L 87.072 67.12 C 87.671 68.79 88.013 70.598 88.013 72.495 C 88.016 80.756 81.795 87.453 74.122 87.453 Z" opacity="0.93" stroke-opacity="0" stroke-miterlimit="10"/></g><g><path fill="#FFFFFF" stroke="rgb(0,0,0)" stroke-dasharray="1.7976931348623157e+308" d="M 75.592 68.539 L 75.6 68.539 L 75.574 68.496 C 75.371 68.079 75.121 67.682 74.826 67.308 L 67.657 55.935 L 64.03 61.687 C 63.936 61.527 63.85 61.359 63.75 61.205 L 52.676 39.874 L 42.144 60.163 L 36.809 51.475 L 28.406 65.157 C 28.061 65.605 27.767 66.082 27.53 66.584 L 27.498 66.636 L 27.507 66.636 C 27.077 67.563 26.832 68.565 26.832 69.617 C 26.832 74.197 31.299 77.911 36.809 77.911 C 38.946 77.911 40.921 77.348 42.544 76.396 C 44.955 79.261 48.599 81.087 52.676 81.087 C 56.663 81.087 60.229 79.334 62.641 76.578 C 64.048 77.412 65.778 77.911 67.657 77.911 C 72.358 77.911 76.17 74.824 76.17 71.016 C 76.168 70.143 75.959 69.309 75.592 68.539 Z" opacity="0.93" stroke-opacity="0" stroke-miterlimit="10"/></g></g></g></g></g><g transform="matrix(1,0,0,1,417,205)"><g><g><rect fill="rgb(0,0,0)" stroke="none" x="0" y="0" width="47" height="14" fill-opacity="0"/></g></g><g><g><rect fill="rgb(0,0,0)" stroke="none" x="0" y="0" width="47" height="14" fill-opacity="0"/></g></g><g><g><rect fill="rgb(0,0,0)" stroke="none" x="3" y="0" width="41" height="14" fill-opacity="0"/></g></g><g><g><rect fill="rgb(0,0,0)" stroke="none" x="3" y="0" width="41" height="14" fill-opacity="0"/></g><text fill="rgb(0, 0, 0)" stroke="none" font-family="Arial" font-size="12px" font-style="normal" font-weight="normal" text-decoration="" line-height="14px" x="3" y="11">Firewall</text></g></g><g transform="translate(0.5,0.5) matrix(1,0,0,1,674.2857142857143,151)"><g><g transform="translate(0,0) scale(1,1.0211152036760147)"><g><g><path fill="#3966A0" stroke="rgb(0,0,0)" stroke-dasharray="1.7976931348623157e+308" d="M 115.092 0 L 4.908 0 C 2.202 0 0 2.202 0 4.908 L 0 22.513 C 0 25.219 2.202 27.421 4.908 27.421 L 115.092 27.421 C 117.798 27.421 120 25.219 120 22.513 L 120 4.908 C 120 2.202 117.798 0 115.092 0 Z" stroke-opacity="0" stroke-miterlimit="10"/></g><g><path fill="#FFFFFF" stroke="rgb(0,0,0)" stroke-dasharray="1.7976931348623157e+308" d="M 115.092 3.008 L 109.196 3.008 L 109.196 24.414 L 10.806 24.414 L 10.806 3.008 L 4.908 3.008 C 3.863 3.008 3.008 3.863 3.008 4.908 L 3.008 22.513 C 3.008 23.558 3.863 24.413 4.908 24.413 L 115.092 24.413 C 116.137 24.413 116.992 23.558 116.992 22.513 L 116.992 4.908 C 116.992 3.863 116.137 3.008 115.092 3.008 Z M 6.847 21.902 C 5.863 21.902 5.066 21.105 5.066 20.121 C 5.066 19.137 5.863 18.34 6.847 18.34 C 7.831 18.34 8.628 19.137 8.628 20.121 C 8.628 21.104 7.831 21.902 6.847 21.902 Z M 6.847 8.841 C 5.863 8.841 5.066 8.044 5.066 7.06 C 5.066 6.076 5.863 5.279 6.847 5.279 C 7.831 5.279 8.628 6.076 8.628 7.06 C 8.628 8.044 7.831 8.841 6.847 8.841 Z M 113.113 21.902 C 112.13 21.902 111.332 21.105 111.332 20.121 C 111.332 19.137 112.129 18.34 113.113 18.34 C 114.097 18.34 114.894 19.137 114.894 20.121 C 114.895 21.104 114.098 21.902 113.113 21.902 Z M 113.113 8.841 C 112.13 8.841 111.332 8.044 111.332 7.06 C 111.332 6.076 112.129 5.279 113.113 5.279 C 114.097 5.279 114.894 6.076 114.894 7.06 C 114.894 8.044 114.098 8.841 113.113 8.841 Z" opacity="0.93" stroke-opacity="0" stroke-miterlimit="10"/></g><g><path fill="#FFFFFF" stroke="rgb(0,0,0)" stroke-dasharray="1.7976931348623157e+308" d="M 109.195 24.414 L 109.195 3.008 L 10.805 3.008 L 10.805 24.414 L 109.195 24.414 Z M 95.145 7.06 L 106.425 7.06 L 106.425 20.121 L 95.145 20.121 L 95.145 7.06 Z M 68.271 8.485 L 92.017 8.485 L 92.017 18.695 L 68.271 18.695 L 68.271 8.485 Z M 41.161 8.485 L 64.908 8.485 L 64.908 18.695 L 41.161 18.695 L 41.161 8.485 Z M 14.09 8.485 L 37.837 8.485 L 37.837 18.695 L 14.09 18.695 L 14.09 8.485 Z" opacity="0.7" stroke-opacity="0" stroke-miterlimit="10"/></g><g><path fill="#FFFFFF" stroke="rgb(0,0,0)" stroke-dasharray="1.7976931348623157e+308" d="M 37.836 8.485 L 14.09 8.485 L 14.09 18.695 L 37.837 18.695 L 37.836 8.485 L 37.836 8.485 Z M 35.976 16.852 L 15.871 16.852 L 15.871 14.873 L 35.976 14.873 L 35.976 16.852 Z M 35.976 12.55 L 15.871 12.55 L 15.871 10.571 L 35.976 10.571 L 35.976 12.55 Z" opacity="0.25" stroke-opacity="0" stroke-miterlimit="10"/></g><g><path fill="#FFFFFF" stroke="rgb(0,0,0)" stroke-dasharray="1.7976931348623157e+308" d="M 64.908 8.485 L 41.161 8.485 L 41.161 18.695 L 64.908 18.695 L 64.908 8.485 Z M 63.087 16.852 L 42.981 16.852 L 42.981 14.873 L 63.087 14.873 L 63.087 16.852 Z M 63.087 12.55 L 42.981 12.55 L 42.981 10.571 L 63.087 10.571 L 63.087 12.55 Z" opacity="0.25" stroke-opacity="0" stroke-miterlimit="10"/></g><g><path fill="#FFFFFF" stroke="rgb(0,0,0)" stroke-dasharray="1.7976931348623157e+308" d="M 92.018 8.485 L 68.271 8.485 L 68.271 18.695 L 92.017 18.695 L 92.017 8.485 Z M 90.198 16.852 L 70.093 16.852 L 70.093 14.873 L 90.198 14.873 L 90.198 16.852 Z M 90.198 12.55 L 70.093 12.55 L 70.093 10.571 L 90.198 10.571 L 90.198 12.55 Z" opacity="0.25" stroke-opacity="0" stroke-miterlimit="10"/></g><g><path fill="#FFFFFF" stroke="rgb(0,0,0)" stroke-dasharray="1.7976931348623157e+308" d="M 8.628 7.06 A 1.781 1.781 0 1 0 8.627999109500074 7.061780999703167 Z" opacity="0.3" stroke-opacity="0" stroke-miterlimit="10"/></g><g><path fill="#FFFFFF" stroke="rgb(0,0,0)" stroke-dasharray="1.7976931348623157e+308" d="M 8.628 20.121 A 1.781 1.781 0 1 0 8.627999109500074 20.122780999703167 Z" opacity="0.3" stroke-opacity="0" stroke-miterlimit="10"/></g><g><path fill="#FFFFFF" stroke="rgb(0,0,0)" stroke-dasharray="1.7976931348623157e+308" d="M 114.894 7.06 A 1.781 1.781 0 1 0 114.89399910950007 7.061780999703167 Z" opacity="0.3" stroke-opacity="0" stroke-miterlimit="10"/></g><g><path fill="#FFFFFF" stroke="rgb(0,0,0)" stroke-dasharray="1.7976931348623157e+308" d="M 114.894 20.121 A 1.781 1.781 0 1 0 114.89399910950007 20.122780999703167 Z" opacity="0.3" stroke-opacity="0" stroke-miterlimit="10"/></g></g></g></g></g><g transform="matrix(1,0,0,1,713,181)"><g><g><rect fill="rgb(0,0,0)" stroke="none" x="0" y="0" width="41" height="14" fill-opacity="0"/></g></g><g><g><rect fill="rgb(0,0,0)" stroke="none" x="0" y="0" width="41" height="14" fill-opacity="0"/></g></g><g><g><rect fill="rgb(0,0,0)" stroke="none" x="3" y="0" width="35" height="14" fill-opacity="0"/></g></g><g><g><rect fill="rgb(0,0,0)" stroke="none" x="3" y="0" width="35" height="14" fill-opacity="0"/></g><text fill="rgb(0, 0, 0)" stroke="none" font-family="Arial" font-size="12px" font-style="normal" font-weight="normal" text-decoration="" line-height="14px" x="3" y="11">Switch</text></g></g><g transform="matrix(1,0,0,1,478,266.5)"><g transform="translate(0,0)"><g transform="translate(-498,-281) translate(20,14.5) matrix(1,0,0,1,0,0)"><g><path fill="none" stroke="#000000" stroke-dasharray="undefined" d="M 493 281.5 L 607.0010964859549 281.5" stroke-miterlimit="10" stroke-width="2"/></g></g></g></g><g transform="matrix(1,0,0,1,478,136.5)"><g transform="translate(0,0)"><g transform="translate(-497,-158) translate(19,21.5) matrix(1,0,0,1,0,0)"><g><path fill="none" stroke="#000000" stroke-dasharray="undefined" d="M 493 151.5 L 605.0546741550748 151.5" stroke-miterlimit="10" stroke-width="2"/></g></g></g></g><g transform="matrix(1,0,0,1,590,135)"><g transform="translate(0,0)"><g transform="translate(-605,-150) translate(15,15) matrix(1,0,0,1,0,0)"><g><path fill="none" stroke="#000000" stroke-dasharray="undefined" d="M 605 150 L 605 280.0038460969521" stroke-miterlimit="10" stroke-width="2"/></g></g></g></g><g transform="matrix(1,0,0,1,266.95834136778535,139.99999999999997)"><g transform="translate(0,0)"><g transform="translate(-344,-155) translate(77.04165863221465,15.000000000000028) matrix(1,0,0,1,0,0)"><g><path fill="none" stroke="#000000" stroke-dasharray="undefined" d="M 281.95834136778535 154.99999999999997 L 390 155" stroke-miterlimit="10" stroke-width="2"/></g></g></g></g><g transform="matrix(1,0,0,1,33,30)"><g><g><rect fill="rgb(0,0,0)" stroke="none" x="0" y="0" width="147" height="23" fill-opacity="0"/></g></g><g><g><rect fill="rgb(0,0,0)" stroke="none" x="0" y="0" width="147" height="23" fill-opacity="0"/></g></g><g><g><rect fill="rgb(0,0,0)" stroke="none" x="47.390625" y="0" width="53" height="22" fill-opacity="0"/></g></g><g><g><rect fill="rgb(0,0,0)" stroke="none" x="47.390625" y="0" width="53" height="22" fill-opacity="0"/></g><text fill="rgb(0, 0, 0)" stroke="none" font-family="Arial" font-size="20px" font-style="normal" font-weight="700" text-decoration="" line-height="22.75px" x="47.390625" y="18">FFM3</text></g></g><g transform="matrix(1,0,0,1,267,137)"><g transform="translate(0,0)"><g transform="translate(-282,-155) translate(15,18) matrix(1,0,0,1,0,0)"><g><path fill="none" stroke="#000000" stroke-dasharray="undefined" d="M 282 152 L 282 285.0038460969521" stroke-miterlimit="10" stroke-width="2"/></g></g></g></g><g transform="matrix(1,0,0,1,263,270.5)"><g transform="translate(0,0)"><g transform="translate(-283,-285) translate(20,14.5) matrix(1,0,0,1,0,0)"><g><path fill="none" stroke="#000000" stroke-dasharray="undefined" d="M 278 285.5 L 392.0010964859549 285.5" stroke-miterlimit="10" stroke-width="2"/></g></g></g></g><g transform="matrix(1,0,0,1,590,249)"><g transform="translate(0,0)"><g transform="translate(-605,-264) translate(15,15) matrix(1,0,0,1,0,0)"><g><path fill="none" stroke="#000000" stroke-dasharray="undefined" d="M 605 264 L 670 264" stroke-miterlimit="10" stroke-width="2"/></g></g></g></g><g transform="matrix(1,0,0,1,592,151)"><g transform="translate(0,0)"><g transform="translate(-607,-166) translate(15,15) matrix(1,0,0,1,0,0)"><g><path fill="none" stroke="#000000" stroke-dasharray="undefined" d="M 607 166 L 672 166" stroke-miterlimit="10" stroke-width="2"/></g></g></g></g></g></svg>